<mxfile host="app.diagrams.net" agent="Mozilla/5.0 (Windows NT 10.0; Win64; x64) AppleWebKit/537.36 (KHTML, like Gecko) Chrome/135.0.0.0 Safari/537.36" version="26.2.12">
  <diagram name="Page-1" id="zrJwmw7tW5KAfOKLH2oW">
    <mxGraphModel dx="952" dy="523" grid="1" gridSize="10" guides="1" tooltips="1" connect="1" arrows="1" fold="1" page="1" pageScale="1" pageWidth="850" pageHeight="1100" math="0" shadow="0">
      <root>
        <mxCell id="0" />
        <mxCell id="1" parent="0" />
        <mxCell id="iRana0tG-1cjRJR6zjte-30" value="" style="shape=actor;whiteSpace=wrap;html=1;fillColor=#f8cecc;strokeColor=#b85450;" vertex="1" parent="1">
          <mxGeometry x="60" y="90" width="40" height="60" as="geometry" />
        </mxCell>
        <mxCell id="iRana0tG-1cjRJR6zjte-31" value="Attacker" style="text;html=1;align=center;verticalAlign=middle;whiteSpace=wrap;rounded=0;" vertex="1" parent="1">
          <mxGeometry x="50" y="55" width="60" height="30" as="geometry" />
        </mxCell>
        <mxCell id="iRana0tG-1cjRJR6zjte-53" style="edgeStyle=orthogonalEdgeStyle;rounded=0;orthogonalLoop=1;jettySize=auto;html=1;entryX=0.5;entryY=1;entryDx=0;entryDy=0;" edge="1" parent="1" source="iRana0tG-1cjRJR6zjte-33" target="iRana0tG-1cjRJR6zjte-35">
          <mxGeometry relative="1" as="geometry" />
        </mxCell>
        <mxCell id="iRana0tG-1cjRJR6zjte-33" value="" style="shape=actor;whiteSpace=wrap;html=1;fillColor=#dae8fc;strokeColor=#6c8ebf;" vertex="1" parent="1">
          <mxGeometry x="180" y="190" width="40" height="60" as="geometry" />
        </mxCell>
        <mxCell id="iRana0tG-1cjRJR6zjte-34" value="Domainuser" style="text;html=1;align=center;verticalAlign=middle;whiteSpace=wrap;rounded=0;" vertex="1" parent="1">
          <mxGeometry x="170" y="265" width="60" height="30" as="geometry" />
        </mxCell>
        <mxCell id="iRana0tG-1cjRJR6zjte-35" value="Watering Hole Attack" style="rounded=0;whiteSpace=wrap;html=1;" vertex="1" parent="1">
          <mxGeometry x="140" y="90" width="120" height="60" as="geometry" />
        </mxCell>
        <mxCell id="iRana0tG-1cjRJR6zjte-38" value="" style="endArrow=classic;html=1;rounded=0;exitX=0.9;exitY=0.5;exitDx=0;exitDy=0;exitPerimeter=0;entryX=0;entryY=0.5;entryDx=0;entryDy=0;" edge="1" parent="1" source="iRana0tG-1cjRJR6zjte-30" target="iRana0tG-1cjRJR6zjte-35">
          <mxGeometry width="50" height="50" relative="1" as="geometry">
            <mxPoint x="380" y="280" as="sourcePoint" />
            <mxPoint x="430" y="230" as="targetPoint" />
          </mxGeometry>
        </mxCell>
        <mxCell id="iRana0tG-1cjRJR6zjte-39" value="" style="endArrow=classic;html=1;rounded=0;exitX=1;exitY=0.5;exitDx=0;exitDy=0;entryX=0;entryY=0.5;entryDx=0;entryDy=0;" edge="1" parent="1" source="iRana0tG-1cjRJR6zjte-35" target="iRana0tG-1cjRJR6zjte-41">
          <mxGeometry width="50" height="50" relative="1" as="geometry">
            <mxPoint x="240" y="320" as="sourcePoint" />
            <mxPoint x="300" y="125" as="targetPoint" />
          </mxGeometry>
        </mxCell>
        <mxCell id="iRana0tG-1cjRJR6zjte-40" value="win11\domainuser" style="text;html=1;align=center;verticalAlign=middle;whiteSpace=wrap;rounded=0;" vertex="1" parent="1">
          <mxGeometry x="250" y="155" width="60" height="30" as="geometry" />
        </mxCell>
        <mxCell id="iRana0tG-1cjRJR6zjte-68" style="edgeStyle=orthogonalEdgeStyle;rounded=0;orthogonalLoop=1;jettySize=auto;html=1;entryX=0;entryY=0.5;entryDx=0;entryDy=0;" edge="1" parent="1" source="iRana0tG-1cjRJR6zjte-41" target="iRana0tG-1cjRJR6zjte-65">
          <mxGeometry relative="1" as="geometry" />
        </mxCell>
        <mxCell id="iRana0tG-1cjRJR6zjte-41" value="Credentialkatz + Documents Exfiltration" style="rounded=0;whiteSpace=wrap;html=1;" vertex="1" parent="1">
          <mxGeometry x="300" y="90" width="120" height="60" as="geometry" />
        </mxCell>
        <mxCell id="iRana0tG-1cjRJR6zjte-60" style="edgeStyle=orthogonalEdgeStyle;rounded=0;orthogonalLoop=1;jettySize=auto;html=1;exitX=0.5;exitY=1;exitDx=0;exitDy=0;" edge="1" parent="1" source="iRana0tG-1cjRJR6zjte-67" target="iRana0tG-1cjRJR6zjte-52">
          <mxGeometry relative="1" as="geometry">
            <mxPoint x="680" y="210" as="sourcePoint" />
          </mxGeometry>
        </mxCell>
        <mxCell id="iRana0tG-1cjRJR6zjte-46" value="win11\domainadmin" style="text;html=1;align=center;verticalAlign=middle;whiteSpace=wrap;rounded=0;" vertex="1" parent="1">
          <mxGeometry x="710" y="205" width="60" height="30" as="geometry" />
        </mxCell>
        <mxCell id="iRana0tG-1cjRJR6zjte-57" style="edgeStyle=orthogonalEdgeStyle;rounded=0;orthogonalLoop=1;jettySize=auto;html=1;entryX=1;entryY=0.5;entryDx=0;entryDy=0;" edge="1" parent="1" source="iRana0tG-1cjRJR6zjte-47" target="iRana0tG-1cjRJR6zjte-48">
          <mxGeometry relative="1" as="geometry" />
        </mxCell>
        <mxCell id="iRana0tG-1cjRJR6zjte-47" value="UAC Bypass" style="rounded=0;whiteSpace=wrap;html=1;" vertex="1" parent="1">
          <mxGeometry x="460" y="262.5" width="120" height="60" as="geometry" />
        </mxCell>
        <mxCell id="iRana0tG-1cjRJR6zjte-48" value="Golden Ticket Acquisition" style="rounded=0;whiteSpace=wrap;html=1;" vertex="1" parent="1">
          <mxGeometry x="300" y="262.5" width="120" height="60" as="geometry" />
        </mxCell>
        <mxCell id="iRana0tG-1cjRJR6zjte-55" style="edgeStyle=orthogonalEdgeStyle;rounded=0;orthogonalLoop=1;jettySize=auto;html=1;entryX=1;entryY=0.5;entryDx=0;entryDy=0;" edge="1" parent="1" source="iRana0tG-1cjRJR6zjte-52" target="iRana0tG-1cjRJR6zjte-47">
          <mxGeometry relative="1" as="geometry" />
        </mxCell>
        <mxCell id="iRana0tG-1cjRJR6zjte-52" value="Autologon Credential Dump" style="rounded=0;whiteSpace=wrap;html=1;" vertex="1" parent="1">
          <mxGeometry x="620" y="262.5" width="120" height="60" as="geometry" />
        </mxCell>
        <mxCell id="iRana0tG-1cjRJR6zjte-56" value="dc\domainadmin" style="text;html=1;align=center;verticalAlign=middle;whiteSpace=wrap;rounded=0;" vertex="1" parent="1">
          <mxGeometry x="570" y="322.5" width="60" height="30" as="geometry" />
        </mxCell>
        <mxCell id="iRana0tG-1cjRJR6zjte-63" style="edgeStyle=orthogonalEdgeStyle;rounded=0;orthogonalLoop=1;jettySize=auto;html=1;exitX=1;exitY=0;exitDx=0;exitDy=0;" edge="1" parent="1" source="iRana0tG-1cjRJR6zjte-65" target="iRana0tG-1cjRJR6zjte-66">
          <mxGeometry relative="1" as="geometry" />
        </mxCell>
        <mxCell id="iRana0tG-1cjRJR6zjte-64" style="edgeStyle=orthogonalEdgeStyle;rounded=0;orthogonalLoop=1;jettySize=auto;html=1;exitX=1;exitY=1;exitDx=0;exitDy=0;entryX=0;entryY=0.5;entryDx=0;entryDy=0;" edge="1" parent="1" source="iRana0tG-1cjRJR6zjte-65" target="iRana0tG-1cjRJR6zjte-67">
          <mxGeometry relative="1" as="geometry">
            <Array as="points">
              <mxPoint x="580" y="160" />
            </Array>
          </mxGeometry>
        </mxCell>
        <mxCell id="iRana0tG-1cjRJR6zjte-65" value="Local Registry Key Persistence" style="rounded=0;whiteSpace=wrap;html=1;" vertex="1" parent="1">
          <mxGeometry x="460" y="90" width="120" height="60" as="geometry" />
        </mxCell>
        <mxCell id="iRana0tG-1cjRJR6zjte-66" value="Unpatched Software Priviledge Escalation" style="rounded=0;whiteSpace=wrap;html=1;" vertex="1" parent="1">
          <mxGeometry x="620" y="40" width="120" height="60" as="geometry" />
        </mxCell>
        <mxCell id="iRana0tG-1cjRJR6zjte-67" value="Unquoted Service Priviledge Escalation" style="rounded=0;whiteSpace=wrap;html=1;" vertex="1" parent="1">
          <mxGeometry x="620" y="130" width="120" height="60" as="geometry" />
        </mxCell>
        <mxCell id="iRana0tG-1cjRJR6zjte-69" value="priviledged dc\domainadmin" style="text;html=1;align=center;verticalAlign=middle;whiteSpace=wrap;rounded=0;" vertex="1" parent="1">
          <mxGeometry x="410" y="330" width="60" height="30" as="geometry" />
        </mxCell>
      </root>
    </mxGraphModel>
  </diagram>
</mxfile>
